<svg xmlns="http://www.w3.org/2000/svg" width="99" height="73" viewBox="0 0 99 73">
  <defs>
    <style>
      .cls-1 {
        fill: gray;
        fill-rule: evenodd;
      }
    </style>
  </defs>
  <path id="parking.svg" class="cls-1" d="M773.206,386.773a3.634,3.634,0,0,0-.973.138l-3.695,1.035-3.836-9.507a8.375,8.375,0,0,0-7.163-4.886H721.63a8.372,8.372,0,0,0-7.163,4.886l-3.832,9.494-3.649-1.022a3.632,3.632,0,0,0-.972-0.138A3.023,3.023,0,0,0,703,390v2.215a3.93,3.93,0,0,0,3.891,3.959h0.418l-0.619,1.534a30.139,30.139,0,0,0-1.832,9.445v18.888A3.93,3.93,0,0,0,708.749,430h5.083a3.93,3.93,0,0,0,3.891-3.958v-4.717h43.722v4.717A3.93,3.93,0,0,0,765.337,430h5.081a3.929,3.929,0,0,0,3.891-3.958V407.153a30.133,30.133,0,0,0-1.832-9.444l-0.619-1.535h0.47a3.929,3.929,0,0,0,3.891-3.958V390A3.023,3.023,0,0,0,773.206,386.773Zm-59.781,7.251,5.8-14.381a5.033,5.033,0,0,1,4.295-2.93h32.12a5.03,5.03,0,0,1,4.295,2.93l5.8,14.381a1.971,1.971,0,0,1-1.93,2.93H715.356A1.972,1.972,0,0,1,713.425,394.024Zm12.957,18.191a1.575,1.575,0,0,1-1.556,1.583H713.8a1.575,1.575,0,0,1-1.556-1.583v-5.382a1.575,1.575,0,0,1,1.556-1.584h11.027a1.575,1.575,0,0,1,1.556,1.584v5.382Zm40.439,0a1.575,1.575,0,0,1-1.556,1.583H754.239a1.575,1.575,0,0,1-1.557-1.583v-5.382a1.576,1.576,0,0,1,1.557-1.584h11.026a1.575,1.575,0,0,1,1.556,1.584v5.382ZM797.133,357H778.7a4.915,4.915,0,0,0-4.867,4.95V380.7a4.916,4.916,0,0,0,4.867,4.951h7.4v42.079a1.817,1.817,0,1,0,3.633,0V385.65h7.4A4.916,4.916,0,0,0,802,380.7V361.951A4.916,4.916,0,0,0,797.133,357Zm-4.175,15.545a6.673,6.673,0,0,1-4.64,1.462h-2.669a0.587,0.587,0,0,0-.581.592v4.578a0.9,0.9,0,0,1-.887.9H782.16a0.894,0.894,0,0,1-.887-0.9v-15.7a0.9,0.9,0,0,1,.887-0.9h5.091c3.373,0,4.632.517,5.667,1.409a5.383,5.383,0,0,1,1.644,4.289A5.533,5.533,0,0,1,792.958,372.545Zm-2.889-6.182a4.4,4.4,0,0,0-2.59-.571h-1.83a0.587,0.587,0,0,0-.581.591v3.763a0.586,0.586,0,0,0,.581.59h1.1c0.4,0,1.053-.03,1.45-0.067a4.9,4.9,0,0,0,1.873-.5A2.865,2.865,0,0,0,790.069,366.363Z" transform="translate(-703 -357)"/>
</svg>
