<svg xmlns="http://www.w3.org/2000/svg" width="73" height="73" viewBox="0 0 73 73">
  <defs>
    <style>
      .cls-1 {
        fill: gray;
        fill-rule: evenodd;
      }
    </style>
  </defs>
  <path id="FAQ.svg" class="cls-1" d="M1381.7,357h-58.4a7.318,7.318,0,0,0-7.3,7.3v58.4a7.318,7.318,0,0,0,7.3,7.3h58.4a7.325,7.325,0,0,0,7.3-7.3V364.3A7.324,7.324,0,0,0,1381.7,357Zm1.46,65.7a1.481,1.481,0,0,1-1.46,1.461h-58.4a1.481,1.481,0,0,1-1.46-1.461V364.3a1.481,1.481,0,0,1,1.46-1.461h58.4a1.481,1.481,0,0,1,1.46,1.461v58.4Zm-31.05-15.6a4.81,4.81,0,0,0-3.47,1.383,4.59,4.59,0,0,0-1.41,3.414,4.465,4.465,0,0,0,1.46,3.545,5.015,5.015,0,0,0,3.42,1.26,4.923,4.923,0,0,0,3.35-1.286,4.477,4.477,0,0,0,1.44-3.519A4.735,4.735,0,0,0,1352.11,407.1Zm9-37.3a18.648,18.648,0,0,0-8.22-1.723,18.111,18.111,0,0,0-8.77,2.047,15.013,15.013,0,0,0-5.72,5.2,11.626,11.626,0,0,0-1.96,6.179,3.934,3.934,0,0,0,1.24,2.757,4.118,4.118,0,0,0,3.03,1.257q3.06,0,4.15-3.632a14.174,14.174,0,0,1,2.83-5.242q1.665-1.788,5.2-1.788a7.038,7.038,0,0,1,4.93,1.759,5.726,5.726,0,0,1,1.91,4.351,4.9,4.9,0,0,1-.63,2.424,9.088,9.088,0,0,1-1.54,2.04c-0.61.62-1.61,1.528-2.97,2.723a47.359,47.359,0,0,0-3.72,3.545,11.589,11.589,0,0,0-2.22,3.479,11.827,11.827,0,0,0-.84,4.671,4.248,4.248,0,0,0,1.15,3.236,3.887,3.887,0,0,0,2.8,1.1c2.14,0,3.41-1.12,3.83-3.347,0.23-1.041.41-1.769,0.52-2.2a7.924,7.924,0,0,1,.5-1.252,7.611,7.611,0,0,1,.99-1.38c0.43-.5,1.02-1.075,1.74-1.757,2.64-2.35,4.45-4.019,5.48-5.019a14.43,14.43,0,0,0,2.63-3.547,9.968,9.968,0,0,0,1.11-4.8,11.294,11.294,0,0,0-1.95-6.4A13.272,13.272,0,0,0,1361.11,369.806Z" transform="translate(-1316 -357)"/>
</svg>
