<svg xmlns="http://www.w3.org/2000/svg" width="59" height="73" viewBox="0 0 59 73">
  <defs>
    <style>
      .cls-1 {
        fill: gray;
        fill-rule: evenodd;
      }
    </style>
  </defs>
  <path id="disability.svg" class="cls-1" d="M1049.43,371.387a7.194,7.194,0,1,0-7.2-7.194A7.2,7.2,0,0,0,1049.43,371.387Zm11.13,40.764a15.916,15.916,0,1,1-21.7-18.943v-6.743a22.238,22.238,0,1,0,26.6,30.6l-2.51-4.934Zm20.98,8.539-9.65-18.944a4.219,4.219,0,0,0-3.77-2.31h-12.35v-2.814h10.63a3.107,3.107,0,0,0,2.53-1.353,3.053,3.053,0,0,0,.64-1.815,3.164,3.164,0,0,0-3.17-3.169h-10.63V380.74a6.34,6.34,0,0,0-12.68,0v20.681a6.462,6.462,0,0,0,6.47,6.463h15.97L1074,424.52A4.228,4.228,0,0,0,1081.54,420.69Z" transform="translate(-1023 -357)"/>
</svg>
