<svg xmlns="http://www.w3.org/2000/svg" width="90" height="83.031" viewBox="0 0 90 83.031">
  <defs>
    <style>
      .cls-1 {
        fill: #808080;
        fill-rule: evenodd;
      }
    </style>
  </defs>
  <path id="information.svg" class="cls-1" d="M477.712,435.768h-2.406v7.185h2.409A3.593,3.593,0,1,0,477.712,435.768Zm-49.023,0-6.017,3.59,6.017,3.593H472.9v-7.184h-44.21Zm61.88-75.827H413.433a6.412,6.412,0,0,0-6.433,6.39V423.69a6.4,6.4,0,0,0,6.429,6.389h77.139A6.41,6.41,0,0,0,497,423.69V366.332A6.405,6.405,0,0,0,490.569,359.942Zm0,17.533v46.214H413.428V393.307h0V377.818h77.137v4.835Zm-20.727,7.7c2.246-2.547,6.051-2.366,8.647-1.721a5.827,5.827,0,0,1,2.945,1.832c0.527,0.732,1.524,2.27,1.311,3.144a1.234,1.234,0,0,0-.057,1.2c0.361,0.481,1.924,2.536,1.924,2.536a0.465,0.465,0,0,1-.181.75,0.847,0.847,0,0,0-.608.841c0,0.32.5,1,.016,1.194,0,0-.5.181-0.374,0.307a3.928,3.928,0,0,0,.5.355,0.422,0.422,0,0,1-.143.552,1.1,1.1,0,0,0-.485.911,4.527,4.527,0,0,0,.249,1.126c0.056,0.182.29,1.056-1.257,1.341s-1.834-.23-2.264,1.3c0,0-.073,1.625-0.073,1.8h-6.857v-1.908a8.469,8.469,0,0,0-.272-1.787l-0.5-1.305a2.138,2.138,0,0,0-1.241-1.142,8.807,8.807,0,0,1-2.676-2.09A8.369,8.369,0,0,1,469.84,385.171ZM420,412.651h39.8a1.54,1.54,0,1,0,0-3.08H420A1.54,1.54,0,1,0,420,412.651Zm0,6.413h39.8a1.54,1.54,0,1,0,0-3.08H420A1.54,1.54,0,1,0,420,419.064Zm-1.55-35.719h42.9v13.4h-42.9v-13.4ZM420,406.239h39.8a1.54,1.54,0,1,0,0-3.08H420A1.54,1.54,0,1,0,420,406.239Zm48.083,12.825H484a1.54,1.54,0,1,0,0-3.08H468.087A1.54,1.54,0,1,0,468.087,419.064Zm0-6.413H484a1.54,1.54,0,1,0,0-3.08H468.087A1.54,1.54,0,1,0,468.087,412.651Z" transform="translate(-407 -359.938)"/>
</svg>
